<svg xmlns="http://www.w3.org/2000/svg" viewBox="0 0 80 80" role="img" aria-label="Fertomart">
  <defs>
    <linearGradient id="flameMark" x1="0" y1="1" x2="0" y2="0">
      <stop offset="0%" stop-color="#7A1F2B"/>
      <stop offset="60%" stop-color="#B8473A"/>
      <stop offset="100%" stop-color="#C9A961"/>
    </linearGradient>
  </defs>

  <circle cx="40" cy="40" r="38" fill="#0F0E0C"/>
  <circle cx="40" cy="40" r="36" fill="none" stroke="#C9A961" stroke-width="0.5" opacity="0.6"/>
  <circle cx="40" cy="40" r="32" fill="none" stroke="#C9A961" stroke-width="0.3" opacity="0.3"/>

  <!-- Llama decorativa arriba -->
  <path d="M 40 14 C 37 19, 35 23, 37.5 27 C 35 25.5, 34 23, 34.5 20 C 33 23, 32 26, 34.5 29 C 33 28, 32.5 26, 33 24 C 31 27, 33 31, 36 32 L 44 32 C 47 31, 49 27, 47 24 C 47.5 26, 47 28, 45.5 29 C 48 26, 47 23, 45.5 20 C 46 23, 45 25.5, 42.5 27 C 45 23, 43 19, 40 14 Z"
        fill="url(#flameMark)"/>

  <!-- Monograma FTM -->
  <g font-family="'Fraunces', 'Playfair Display', 'Bodoni Moda', Georgia, serif"
     font-weight="500" fill="#F4E9D8" text-anchor="middle">
    <text x="24" y="58" font-size="22" letter-spacing="-0.5">F</text>
    <text x="40" y="58" font-size="28" letter-spacing="-0.5">T</text>
    <text x="56" y="58" font-size="22" letter-spacing="-0.5">M</text>
  </g>

  <line x1="28" y1="65" x2="52" y2="65" stroke="#C9A961" stroke-width="0.4" opacity="0.6"/>
</svg>
